<mxfile host="app.diagrams.net" agent="Mozilla/5.0 (Windows NT 10.0; Win64; x64) AppleWebKit/537.36 (KHTML, like Gecko) Chrome/135.0.0.0 Safari/537.36" version="26.2.14">
  <diagram name="Page-1" id="e7e014a7-5840-1c2e-5031-d8a46d1fe8dd">
    <mxGraphModel dx="1088" dy="574" grid="1" gridSize="10" guides="1" tooltips="1" connect="1" arrows="1" fold="1" page="1" pageScale="1" pageWidth="1169" pageHeight="826" background="none" math="0" shadow="0">
      <root>
        <mxCell id="0" />
        <mxCell id="1" parent="0" />
        <mxCell id="2" value="Пользователь" style="swimlane;whiteSpace=wrap" parent="1" vertex="1">
          <mxGeometry x="164.5" y="128" width="280" height="752" as="geometry" />
        </mxCell>
        <mxCell id="8YrjSiBhf-iEGe0bIozn-49" value="" style="ellipse;html=1;shape=startState;fillColor=#000000;strokeColor=#ff0000;" vertex="1" parent="2">
          <mxGeometry x="125" y="42" width="30" height="30" as="geometry" />
        </mxCell>
        <mxCell id="8YrjSiBhf-iEGe0bIozn-54" value="" style="edgeStyle=orthogonalEdgeStyle;html=1;verticalAlign=bottom;endArrow=open;endSize=8;strokeColor=#b85450;rounded=0;entryX=0.5;entryY=0;entryDx=0;entryDy=0;curved=1;fillColor=#f8cecc;exitX=0.5;exitY=1;exitDx=0;exitDy=0;" edge="1" parent="2" source="8YrjSiBhf-iEGe0bIozn-49" target="8YrjSiBhf-iEGe0bIozn-61">
          <mxGeometry relative="1" as="geometry">
            <mxPoint x="140.0050000000001" y="81.99999999999989" as="targetPoint" />
            <mxPoint x="155.5" y="47" as="sourcePoint" />
          </mxGeometry>
        </mxCell>
        <mxCell id="8YrjSiBhf-iEGe0bIozn-61" value="Ввод исходного кода на языке SiMPLE" style="rounded=1;whiteSpace=wrap;html=1;arcSize=40;fontColor=#000000;fillColor=#ffffc0;strokeColor=#ff0000;fontSize=10;" vertex="1" parent="2">
          <mxGeometry x="80" y="92" width="120" height="40" as="geometry" />
        </mxCell>
        <mxCell id="8YrjSiBhf-iEGe0bIozn-65" value="Нажать кнопку &quot;Запустить анализ&quot;" style="rounded=1;whiteSpace=wrap;html=1;arcSize=40;fontColor=#000000;fillColor=#ffffc0;strokeColor=#ff0000;fontSize=10;" vertex="1" parent="2">
          <mxGeometry x="80" y="152" width="120" height="40" as="geometry" />
        </mxCell>
        <mxCell id="8YrjSiBhf-iEGe0bIozn-67" value="" style="edgeStyle=orthogonalEdgeStyle;html=1;verticalAlign=bottom;endArrow=open;endSize=8;strokeColor=#b85450;rounded=0;entryX=0.5;entryY=0;entryDx=0;entryDy=0;curved=1;fillColor=#f8cecc;exitX=0.5;exitY=1;exitDx=0;exitDy=0;" edge="1" parent="2" source="8YrjSiBhf-iEGe0bIozn-61" target="8YrjSiBhf-iEGe0bIozn-65">
          <mxGeometry relative="1" as="geometry">
            <mxPoint x="150" y="102" as="targetPoint" />
            <mxPoint x="150" y="72" as="sourcePoint" />
          </mxGeometry>
        </mxCell>
        <mxCell id="3" value="Лексический анализ" style="swimlane;whiteSpace=wrap" parent="1" vertex="1">
          <mxGeometry x="444.5" y="128" width="815.5" height="752" as="geometry" />
        </mxCell>
        <mxCell id="8YrjSiBhf-iEGe0bIozn-71" style="edgeStyle=orthogonalEdgeStyle;rounded=0;orthogonalLoop=1;jettySize=auto;html=1;exitX=0.5;exitY=1;exitDx=0;exitDy=0;entryX=0.5;entryY=0;entryDx=0;entryDy=0;fillColor=#f8cecc;strokeColor=#b85450;endArrow=open;endFill=0;" edge="1" parent="3" source="8YrjSiBhf-iEGe0bIozn-64" target="8YrjSiBhf-iEGe0bIozn-68">
          <mxGeometry relative="1" as="geometry">
            <Array as="points">
              <mxPoint x="154.98" y="89" />
              <mxPoint x="154.98" y="89" />
            </Array>
          </mxGeometry>
        </mxCell>
        <mxCell id="8YrjSiBhf-iEGe0bIozn-64" value="Получение каждого отдельного символа из исходного кода относительно текущего положения" style="rounded=1;whiteSpace=wrap;html=1;arcSize=40;fontColor=#000000;fillColor=#ffffc0;strokeColor=#ff0000;fontSize=10;" vertex="1" parent="3">
          <mxGeometry x="61.730000000000004" y="32" width="187.25" height="40" as="geometry" />
        </mxCell>
        <mxCell id="8YrjSiBhf-iEGe0bIozn-68" value="" style="rhombus;whiteSpace=wrap;html=1;fontColor=#000000;fillColor=#ffffc0;strokeColor=#ff0000;fontSize=10;" vertex="1" parent="3">
          <mxGeometry x="128.1" y="107" width="54.5" height="36" as="geometry" />
        </mxCell>
        <mxCell id="8YrjSiBhf-iEGe0bIozn-69" value="нет" style="edgeStyle=orthogonalEdgeStyle;html=1;align=left;verticalAlign=bottom;endArrow=open;endSize=8;strokeColor=#b85450;rounded=0;fontSize=10;fillColor=#f8cecc;entryX=0.5;entryY=0;entryDx=0;entryDy=0;" edge="1" source="8YrjSiBhf-iEGe0bIozn-68" parent="3" target="8YrjSiBhf-iEGe0bIozn-84">
          <mxGeometry x="-1" relative="1" as="geometry">
            <mxPoint x="224.48" y="125" as="targetPoint" />
          </mxGeometry>
        </mxCell>
        <mxCell id="8YrjSiBhf-iEGe0bIozn-70" value="да" style="edgeStyle=orthogonalEdgeStyle;html=1;align=left;verticalAlign=top;endArrow=open;endSize=8;strokeColor=#b85450;rounded=0;fontSize=10;fillColor=#f8cecc;entryX=0.5;entryY=0;entryDx=0;entryDy=0;exitX=0;exitY=0.5;exitDx=0;exitDy=0;" edge="1" source="8YrjSiBhf-iEGe0bIozn-68" parent="3" target="8YrjSiBhf-iEGe0bIozn-80">
          <mxGeometry x="-0.6854" y="7" relative="1" as="geometry">
            <mxPoint x="121.48" y="182" as="targetPoint" />
            <mxPoint as="offset" />
          </mxGeometry>
        </mxCell>
        <mxCell id="8YrjSiBhf-iEGe0bIozn-72" value="[Символ это цифра]" style="text;html=1;align=center;verticalAlign=middle;resizable=0;points=[];autosize=1;strokeColor=none;fillColor=none;fontFamily=Helvetica;fontSize=10;fontColor=default;labelBackgroundColor=default;" vertex="1" parent="3">
          <mxGeometry x="95.35000000000001" y="72" width="120" height="30" as="geometry" />
        </mxCell>
        <mxCell id="8YrjSiBhf-iEGe0bIozn-82" style="edgeStyle=orthogonalEdgeStyle;shape=connector;rounded=0;orthogonalLoop=1;jettySize=auto;html=1;exitX=0;exitY=0.5;exitDx=0;exitDy=0;entryX=0;entryY=0.5;entryDx=0;entryDy=0;strokeColor=#b85450;align=center;verticalAlign=middle;fontFamily=Helvetica;fontSize=10;fontColor=default;labelBackgroundColor=default;autosize=1;resizable=0;endArrow=open;endFill=0;fillColor=#f8cecc;" edge="1" parent="3" source="8YrjSiBhf-iEGe0bIozn-97" target="8YrjSiBhf-iEGe0bIozn-64">
          <mxGeometry relative="1" as="geometry">
            <Array as="points">
              <mxPoint x="15.48" y="262" />
              <mxPoint x="15.48" y="52" />
            </Array>
          </mxGeometry>
        </mxCell>
        <mxCell id="8YrjSiBhf-iEGe0bIozn-98" style="edgeStyle=orthogonalEdgeStyle;shape=connector;rounded=0;orthogonalLoop=1;jettySize=auto;html=1;exitX=0.5;exitY=1;exitDx=0;exitDy=0;entryX=0.5;entryY=0;entryDx=0;entryDy=0;strokeColor=#b85450;align=center;verticalAlign=middle;fontFamily=Helvetica;fontSize=10;fontColor=default;labelBackgroundColor=default;autosize=1;resizable=0;endArrow=open;endFill=0;fillColor=#f8cecc;" edge="1" parent="3" source="8YrjSiBhf-iEGe0bIozn-80" target="8YrjSiBhf-iEGe0bIozn-97">
          <mxGeometry relative="1" as="geometry" />
        </mxCell>
        <mxCell id="8YrjSiBhf-iEGe0bIozn-80" value="Формирование числа из символов до следующего пробела" style="rounded=1;whiteSpace=wrap;html=1;arcSize=40;fontColor=#000000;fillColor=#ffffc0;strokeColor=#ff0000;fontSize=10;" vertex="1" parent="3">
          <mxGeometry x="34.480000000000004" y="182" width="137.25" height="38" as="geometry" />
        </mxCell>
        <mxCell id="8YrjSiBhf-iEGe0bIozn-84" value="" style="rhombus;whiteSpace=wrap;html=1;fontColor=#000000;fillColor=#ffffc0;strokeColor=#ff0000;fontSize=10;" vertex="1" parent="3">
          <mxGeometry x="237.48" y="159.5" width="54.5" height="36" as="geometry" />
        </mxCell>
        <mxCell id="8YrjSiBhf-iEGe0bIozn-85" value="нет" style="edgeStyle=orthogonalEdgeStyle;html=1;align=left;verticalAlign=bottom;endArrow=open;endSize=8;strokeColor=#b85450;rounded=0;fontSize=10;fillColor=#f8cecc;exitX=1;exitY=0.5;exitDx=0;exitDy=0;entryX=0.5;entryY=0;entryDx=0;entryDy=0;" edge="1" parent="3" source="8YrjSiBhf-iEGe0bIozn-84" target="8YrjSiBhf-iEGe0bIozn-103">
          <mxGeometry x="-1" relative="1" as="geometry">
            <mxPoint x="354.47999999999996" y="177.5" as="targetPoint" />
            <mxPoint x="192.98" y="187.5" as="sourcePoint" />
          </mxGeometry>
        </mxCell>
        <mxCell id="8YrjSiBhf-iEGe0bIozn-86" value="да" style="edgeStyle=orthogonalEdgeStyle;html=1;align=left;verticalAlign=bottom;endArrow=open;endSize=8;strokeColor=#b85450;rounded=0;fontSize=10;fillColor=#f8cecc;exitX=0.5;exitY=1;exitDx=0;exitDy=0;entryX=0.5;entryY=0;entryDx=0;entryDy=0;" edge="1" parent="3" source="8YrjSiBhf-iEGe0bIozn-84" target="8YrjSiBhf-iEGe0bIozn-125">
          <mxGeometry x="-0.3206" relative="1" as="geometry">
            <mxPoint x="264.97999999999996" y="242" as="targetPoint" />
            <mxPoint x="289.47999999999996" y="187.5" as="sourcePoint" />
            <mxPoint as="offset" />
          </mxGeometry>
        </mxCell>
        <mxCell id="8YrjSiBhf-iEGe0bIozn-88" value="[Символ это специальный знак или оператор]" style="text;html=1;align=center;verticalAlign=middle;resizable=0;points=[];autosize=1;strokeColor=none;fillColor=none;fontFamily=Helvetica;fontSize=10;fontColor=default;labelBackgroundColor=default;" vertex="1" parent="3">
          <mxGeometry x="164.48" y="122" width="240" height="30" as="geometry" />
        </mxCell>
        <mxCell id="8YrjSiBhf-iEGe0bIozn-97" value="Создание Токена с соответствующим типом числа" style="rounded=1;whiteSpace=wrap;html=1;arcSize=40;fontColor=#000000;fillColor=#ffffc0;strokeColor=#ff0000;fontSize=10;" vertex="1" parent="3">
          <mxGeometry x="34.480000000000004" y="242" width="137.25" height="40" as="geometry" />
        </mxCell>
        <mxCell id="8YrjSiBhf-iEGe0bIozn-136" style="edgeStyle=orthogonalEdgeStyle;shape=connector;rounded=0;orthogonalLoop=1;jettySize=auto;html=1;exitX=0.5;exitY=1;exitDx=0;exitDy=0;entryX=0;entryY=0.5;entryDx=0;entryDy=0;strokeColor=#b85450;align=center;verticalAlign=middle;fontFamily=Helvetica;fontSize=10;fontColor=default;labelBackgroundColor=default;autosize=1;resizable=0;endArrow=open;endFill=0;fillColor=#f8cecc;" edge="1" parent="3" source="8YrjSiBhf-iEGe0bIozn-99" target="8YrjSiBhf-iEGe0bIozn-64">
          <mxGeometry relative="1" as="geometry">
            <Array as="points">
              <mxPoint x="353.47999999999996" y="422" />
              <mxPoint x="15.48" y="422" />
              <mxPoint x="15.48" y="52" />
            </Array>
          </mxGeometry>
        </mxCell>
        <mxCell id="8YrjSiBhf-iEGe0bIozn-99" value="Создание Токена с соответствующим типом знака либо оператора" style="rounded=1;whiteSpace=wrap;html=1;arcSize=40;fontColor=#000000;fillColor=#ffffc0;strokeColor=#ff0000;fontSize=10;" vertex="1" parent="3">
          <mxGeometry x="284.97999999999996" y="292" width="137.25" height="40" as="geometry" />
        </mxCell>
        <mxCell id="8YrjSiBhf-iEGe0bIozn-103" value="" style="rhombus;whiteSpace=wrap;html=1;fontColor=#000000;fillColor=#ffffc0;strokeColor=#ff0000;fontSize=10;" vertex="1" parent="3">
          <mxGeometry x="497.47999999999996" y="211" width="54.5" height="36" as="geometry" />
        </mxCell>
        <mxCell id="8YrjSiBhf-iEGe0bIozn-104" value="нет" style="edgeStyle=orthogonalEdgeStyle;html=1;align=left;verticalAlign=bottom;endArrow=open;endSize=8;strokeColor=#b85450;rounded=0;fontSize=10;fillColor=#f8cecc;exitX=1;exitY=0.5;exitDx=0;exitDy=0;entryX=0.5;entryY=0;entryDx=0;entryDy=0;" edge="1" parent="3" source="8YrjSiBhf-iEGe0bIozn-103" target="8YrjSiBhf-iEGe0bIozn-143">
          <mxGeometry x="-1" relative="1" as="geometry">
            <mxPoint x="635.5" y="232" as="targetPoint" />
            <mxPoint x="452.97999999999996" y="228.5" as="sourcePoint" />
          </mxGeometry>
        </mxCell>
        <mxCell id="8YrjSiBhf-iEGe0bIozn-106" value="[Символ это буква]" style="text;html=1;align=center;verticalAlign=middle;resizable=0;points=[];autosize=1;strokeColor=none;fillColor=none;fontFamily=Helvetica;fontSize=10;fontColor=default;labelBackgroundColor=default;" vertex="1" parent="3">
          <mxGeometry x="469.72999999999996" y="177" width="110" height="30" as="geometry" />
        </mxCell>
        <mxCell id="8YrjSiBhf-iEGe0bIozn-110" style="edgeStyle=orthogonalEdgeStyle;shape=connector;rounded=0;orthogonalLoop=1;jettySize=auto;html=1;exitX=0.5;exitY=1;exitDx=0;exitDy=0;entryX=0.5;entryY=0;entryDx=0;entryDy=0;strokeColor=#b85450;align=center;verticalAlign=middle;fontFamily=Helvetica;fontSize=10;fontColor=default;labelBackgroundColor=default;autosize=1;resizable=0;endArrow=open;endFill=0;fillColor=#f8cecc;" edge="1" parent="3" source="8YrjSiBhf-iEGe0bIozn-108" target="8YrjSiBhf-iEGe0bIozn-109">
          <mxGeometry relative="1" as="geometry" />
        </mxCell>
        <mxCell id="8YrjSiBhf-iEGe0bIozn-108" value="Формирование слова из символов до следующего пробела" style="rounded=1;whiteSpace=wrap;html=1;arcSize=40;fontColor=#000000;fillColor=#ffffc0;strokeColor=#ff0000;fontSize=10;" vertex="1" parent="3">
          <mxGeometry x="456.10999999999996" y="277" width="137.25" height="40" as="geometry" />
        </mxCell>
        <mxCell id="8YrjSiBhf-iEGe0bIozn-109" value="" style="rhombus;whiteSpace=wrap;html=1;fontColor=#000000;fillColor=#ffffc0;strokeColor=#ff0000;fontSize=10;" vertex="1" parent="3">
          <mxGeometry x="497.48999999999995" y="347" width="54.5" height="36" as="geometry" />
        </mxCell>
        <mxCell id="8YrjSiBhf-iEGe0bIozn-113" value="[Слово из списка специальных слов]" style="text;html=1;align=center;verticalAlign=middle;resizable=0;points=[];autosize=1;strokeColor=none;fillColor=none;fontFamily=Helvetica;fontSize=10;fontColor=default;labelBackgroundColor=default;" vertex="1" parent="3">
          <mxGeometry x="429.73999999999995" y="312" width="190" height="30" as="geometry" />
        </mxCell>
        <mxCell id="8YrjSiBhf-iEGe0bIozn-138" style="edgeStyle=orthogonalEdgeStyle;shape=connector;rounded=0;orthogonalLoop=1;jettySize=auto;html=1;exitX=0.5;exitY=1;exitDx=0;exitDy=0;entryX=0;entryY=0.5;entryDx=0;entryDy=0;strokeColor=#b85450;align=center;verticalAlign=middle;fontFamily=Helvetica;fontSize=10;fontColor=default;labelBackgroundColor=default;autosize=1;resizable=0;endArrow=open;endFill=0;fillColor=#f8cecc;" edge="1" parent="3" source="8YrjSiBhf-iEGe0bIozn-114" target="8YrjSiBhf-iEGe0bIozn-64">
          <mxGeometry relative="1" as="geometry">
            <Array as="points">
              <mxPoint x="443.47999999999996" y="472" />
              <mxPoint x="15.48" y="472" />
              <mxPoint x="15.48" y="52" />
            </Array>
          </mxGeometry>
        </mxCell>
        <mxCell id="8YrjSiBhf-iEGe0bIozn-114" value="Создание Токена с соответствующим типом специального слова" style="rounded=1;whiteSpace=wrap;html=1;arcSize=40;fontColor=#000000;fillColor=#ffffc0;strokeColor=#ff0000;fontSize=10;" vertex="1" parent="3">
          <mxGeometry x="374.97999999999996" y="407" width="137.25" height="40" as="geometry" />
        </mxCell>
        <mxCell id="8YrjSiBhf-iEGe0bIozn-139" style="edgeStyle=orthogonalEdgeStyle;shape=connector;rounded=0;orthogonalLoop=1;jettySize=auto;html=1;exitX=0.5;exitY=1;exitDx=0;exitDy=0;entryX=0;entryY=0.5;entryDx=0;entryDy=0;strokeColor=#b85450;align=center;verticalAlign=middle;fontFamily=Helvetica;fontSize=10;fontColor=default;labelBackgroundColor=default;autosize=1;resizable=0;endArrow=open;endFill=0;fillColor=#f8cecc;" edge="1" parent="3" source="8YrjSiBhf-iEGe0bIozn-116" target="8YrjSiBhf-iEGe0bIozn-64">
          <mxGeometry relative="1" as="geometry">
            <Array as="points">
              <mxPoint x="613.48" y="472" />
              <mxPoint x="15.48" y="472" />
              <mxPoint x="15.48" y="52" />
            </Array>
          </mxGeometry>
        </mxCell>
        <mxCell id="8YrjSiBhf-iEGe0bIozn-116" value="Создание Токена с типом индентификатора" style="rounded=1;whiteSpace=wrap;html=1;arcSize=40;fontColor=#000000;fillColor=#ffffc0;strokeColor=#ff0000;fontSize=10;" vertex="1" parent="3">
          <mxGeometry x="544.98" y="407" width="137.25" height="40" as="geometry" />
        </mxCell>
        <mxCell id="8YrjSiBhf-iEGe0bIozn-105" value="да" style="edgeStyle=orthogonalEdgeStyle;html=1;align=left;verticalAlign=bottom;endArrow=open;endSize=8;strokeColor=#b85450;rounded=0;fontSize=10;fillColor=#f8cecc;" edge="1" parent="3">
          <mxGeometry x="-0.2313" y="10" relative="1" as="geometry">
            <mxPoint x="524.48" y="277" as="targetPoint" />
            <mxPoint x="524.48" y="247" as="sourcePoint" />
            <mxPoint as="offset" />
          </mxGeometry>
        </mxCell>
        <mxCell id="8YrjSiBhf-iEGe0bIozn-111" value="нет" style="edgeStyle=orthogonalEdgeStyle;html=1;align=left;verticalAlign=bottom;endArrow=open;endSize=8;strokeColor=#b85450;rounded=0;fontSize=10;fillColor=#f8cecc;exitX=1;exitY=0.5;exitDx=0;exitDy=0;entryX=0.5;entryY=0;entryDx=0;entryDy=0;" edge="1" parent="3" source="8YrjSiBhf-iEGe0bIozn-109" target="8YrjSiBhf-iEGe0bIozn-116">
          <mxGeometry x="-1" relative="1" as="geometry">
            <mxPoint x="614.48" y="365" as="targetPoint" />
            <mxPoint x="561.98" y="239" as="sourcePoint" />
          </mxGeometry>
        </mxCell>
        <mxCell id="8YrjSiBhf-iEGe0bIozn-112" value="да" style="edgeStyle=orthogonalEdgeStyle;html=1;align=left;verticalAlign=bottom;endArrow=open;endSize=8;strokeColor=#b85450;rounded=0;fontSize=10;fillColor=#f8cecc;exitX=0;exitY=0.5;exitDx=0;exitDy=0;entryX=0.5;entryY=0;entryDx=0;entryDy=0;" edge="1" parent="3" source="8YrjSiBhf-iEGe0bIozn-109" target="8YrjSiBhf-iEGe0bIozn-114">
          <mxGeometry x="-0.5305" relative="1" as="geometry">
            <mxPoint x="524.48" y="407" as="targetPoint" />
            <mxPoint x="534.48" y="257" as="sourcePoint" />
            <mxPoint as="offset" />
          </mxGeometry>
        </mxCell>
        <mxCell id="8YrjSiBhf-iEGe0bIozn-142" style="edgeStyle=orthogonalEdgeStyle;shape=connector;rounded=0;orthogonalLoop=1;jettySize=auto;html=1;exitX=0.5;exitY=1;exitDx=0;exitDy=0;entryX=0;entryY=0.5;entryDx=0;entryDy=0;strokeColor=#b85450;align=center;verticalAlign=middle;fontFamily=Helvetica;fontSize=10;fontColor=default;labelBackgroundColor=default;autosize=1;resizable=0;endArrow=open;endFill=0;fillColor=#f8cecc;" edge="1" parent="3" source="8YrjSiBhf-iEGe0bIozn-119" target="8YrjSiBhf-iEGe0bIozn-64">
          <mxGeometry relative="1" as="geometry">
            <Array as="points">
              <mxPoint x="710" y="472" />
              <mxPoint x="16" y="472" />
              <mxPoint x="16" y="52" />
            </Array>
          </mxGeometry>
        </mxCell>
        <mxCell id="8YrjSiBhf-iEGe0bIozn-119" value="Создание Токена не валидного типа" style="rounded=1;whiteSpace=wrap;html=1;arcSize=40;fontColor=#000000;fillColor=#ffffc0;strokeColor=#ff0000;fontSize=10;" vertex="1" parent="3">
          <mxGeometry x="640.86" y="342" width="137.25" height="40" as="geometry" />
        </mxCell>
        <mxCell id="8YrjSiBhf-iEGe0bIozn-125" value="" style="rhombus;whiteSpace=wrap;html=1;fontColor=#000000;fillColor=#ffffc0;strokeColor=#ff0000;fontSize=10;" vertex="1" parent="3">
          <mxGeometry x="237.47" y="244" width="54.5" height="36" as="geometry" />
        </mxCell>
        <mxCell id="8YrjSiBhf-iEGe0bIozn-126" value="да" style="edgeStyle=orthogonalEdgeStyle;html=1;align=left;verticalAlign=bottom;endArrow=open;endSize=8;strokeColor=#b85450;rounded=0;fontSize=10;fillColor=#f8cecc;exitX=0;exitY=0.5;exitDx=0;exitDy=0;entryX=0.5;entryY=0;entryDx=0;entryDy=0;" edge="1" parent="3" source="8YrjSiBhf-iEGe0bIozn-125" target="8YrjSiBhf-iEGe0bIozn-131">
          <mxGeometry x="-0.3186" y="-1" relative="1" as="geometry">
            <mxPoint x="204.98" y="282" as="targetPoint" />
            <mxPoint x="289.46999999999997" y="272" as="sourcePoint" />
            <mxPoint as="offset" />
            <Array as="points">
              <mxPoint x="196.48" y="262" />
            </Array>
          </mxGeometry>
        </mxCell>
        <mxCell id="8YrjSiBhf-iEGe0bIozn-127" value="[Это двойная кавычка]" style="text;html=1;align=center;verticalAlign=middle;resizable=0;points=[];autosize=1;strokeColor=none;fillColor=none;fontFamily=Helvetica;fontSize=10;fontColor=default;labelBackgroundColor=default;" vertex="1" parent="3">
          <mxGeometry x="204.98" y="209" width="130" height="30" as="geometry" />
        </mxCell>
        <mxCell id="8YrjSiBhf-iEGe0bIozn-129" value="нет" style="edgeStyle=orthogonalEdgeStyle;html=1;align=left;verticalAlign=bottom;endArrow=open;endSize=8;strokeColor=#b85450;rounded=0;fontSize=10;fillColor=#f8cecc;exitX=1;exitY=0.5;exitDx=0;exitDy=0;entryX=0.5;entryY=0;entryDx=0;entryDy=0;" edge="1" parent="3" source="8YrjSiBhf-iEGe0bIozn-125" target="8YrjSiBhf-iEGe0bIozn-99">
          <mxGeometry x="-0.9419" y="-2" relative="1" as="geometry">
            <mxPoint x="353.6050000000002" y="292" as="targetPoint" />
            <mxPoint x="397.47999999999996" y="236" as="sourcePoint" />
            <mxPoint as="offset" />
          </mxGeometry>
        </mxCell>
        <mxCell id="8YrjSiBhf-iEGe0bIozn-130" style="edgeStyle=orthogonalEdgeStyle;shape=connector;rounded=0;orthogonalLoop=1;jettySize=auto;html=1;exitX=0.5;exitY=1;exitDx=0;exitDy=0;entryX=0.5;entryY=0;entryDx=0;entryDy=0;strokeColor=#b85450;align=center;verticalAlign=middle;fontFamily=Helvetica;fontSize=10;fontColor=default;labelBackgroundColor=default;autosize=1;resizable=0;endArrow=open;endFill=0;fillColor=#f8cecc;" edge="1" parent="3" source="8YrjSiBhf-iEGe0bIozn-131" target="8YrjSiBhf-iEGe0bIozn-132">
          <mxGeometry relative="1" as="geometry" />
        </mxCell>
        <mxCell id="8YrjSiBhf-iEGe0bIozn-131" value="Формирование строки из символов до следующей двойной кавычки" style="rounded=1;whiteSpace=wrap;html=1;arcSize=40;fontColor=#000000;fillColor=#ffffc0;strokeColor=#ff0000;fontSize=10;" vertex="1" parent="3">
          <mxGeometry x="128.1" y="292" width="137.25" height="40" as="geometry" />
        </mxCell>
        <mxCell id="8YrjSiBhf-iEGe0bIozn-137" style="edgeStyle=orthogonalEdgeStyle;shape=connector;rounded=0;orthogonalLoop=1;jettySize=auto;html=1;exitX=0.5;exitY=1;exitDx=0;exitDy=0;entryX=0;entryY=0.5;entryDx=0;entryDy=0;strokeColor=#b85450;align=center;verticalAlign=middle;fontFamily=Helvetica;fontSize=10;fontColor=default;labelBackgroundColor=default;autosize=1;resizable=0;endArrow=open;endFill=0;fillColor=#f8cecc;" edge="1" parent="3" source="8YrjSiBhf-iEGe0bIozn-132" target="8YrjSiBhf-iEGe0bIozn-64">
          <mxGeometry relative="1" as="geometry">
            <Array as="points">
              <mxPoint x="196.48" y="422" />
              <mxPoint x="15.48" y="422" />
              <mxPoint x="15.48" y="52" />
            </Array>
          </mxGeometry>
        </mxCell>
        <mxCell id="8YrjSiBhf-iEGe0bIozn-132" value="Создание Токена с типом строки" style="rounded=1;whiteSpace=wrap;html=1;arcSize=40;fontColor=#000000;fillColor=#ffffc0;strokeColor=#ff0000;fontSize=10;" vertex="1" parent="3">
          <mxGeometry x="128.1" y="352" width="137.25" height="40" as="geometry" />
        </mxCell>
        <mxCell id="8YrjSiBhf-iEGe0bIozn-143" value="" style="rhombus;whiteSpace=wrap;html=1;fontColor=#000000;fillColor=#ffffc0;strokeColor=#ff0000;fontSize=10;" vertex="1" parent="3">
          <mxGeometry x="682.23" y="276" width="54.5" height="36" as="geometry" />
        </mxCell>
        <mxCell id="8YrjSiBhf-iEGe0bIozn-144" value="нет" style="edgeStyle=orthogonalEdgeStyle;html=1;align=left;verticalAlign=bottom;endArrow=open;endSize=8;strokeColor=#b85450;rounded=0;fontSize=10;fillColor=#f8cecc;exitX=0.5;exitY=1;exitDx=0;exitDy=0;entryX=0.5;entryY=0;entryDx=0;entryDy=0;" edge="1" parent="3" source="8YrjSiBhf-iEGe0bIozn-143" target="8YrjSiBhf-iEGe0bIozn-119">
          <mxGeometry x="-0.2313" y="10" relative="1" as="geometry">
            <mxPoint x="534.48" y="287" as="targetPoint" />
            <mxPoint x="534.48" y="257" as="sourcePoint" />
            <mxPoint as="offset" />
          </mxGeometry>
        </mxCell>
        <mxCell id="8YrjSiBhf-iEGe0bIozn-145" value="[Это символ конца строки]" style="text;html=1;align=center;verticalAlign=middle;resizable=0;points=[];autosize=1;strokeColor=none;fillColor=none;fontFamily=Helvetica;fontSize=10;fontColor=default;labelBackgroundColor=default;" vertex="1" parent="3">
          <mxGeometry x="634.48" y="232" width="150" height="30" as="geometry" />
        </mxCell>
        <mxCell id="4" value="Синтаксический анализ" style="swimlane;whiteSpace=wrap;startSize=23;" parent="1" vertex="1">
          <mxGeometry x="1270" y="128" width="740" height="752" as="geometry" />
        </mxCell>
        <mxCell id="8YrjSiBhf-iEGe0bIozn-157" style="edgeStyle=orthogonalEdgeStyle;shape=connector;rounded=0;orthogonalLoop=1;jettySize=auto;html=1;exitX=0.5;exitY=1;exitDx=0;exitDy=0;entryX=0.5;entryY=0;entryDx=0;entryDy=0;strokeColor=#b85450;align=center;verticalAlign=middle;fontFamily=Helvetica;fontSize=10;fontColor=default;labelBackgroundColor=default;autosize=1;resizable=0;endArrow=open;endFill=0;fillColor=#f8cecc;" edge="1" parent="4" source="8YrjSiBhf-iEGe0bIozn-149" target="8YrjSiBhf-iEGe0bIozn-152">
          <mxGeometry relative="1" as="geometry">
            <mxPoint x="370.0050000000001" y="112" as="targetPoint" />
          </mxGeometry>
        </mxCell>
        <mxCell id="8YrjSiBhf-iEGe0bIozn-149" value="Прочитать следующий токен" style="rounded=1;whiteSpace=wrap;html=1;arcSize=40;fontColor=#000000;fillColor=#ffffc0;strokeColor=#ff0000;fontSize=10;" vertex="1" parent="4">
          <mxGeometry x="254.95" y="32" width="230" height="40" as="geometry" />
        </mxCell>
        <mxCell id="8YrjSiBhf-iEGe0bIozn-152" value="" style="rhombus;whiteSpace=wrap;html=1;fontColor=#000000;fillColor=#ffffc0;strokeColor=#ff0000;fontSize=10;" vertex="1" parent="4">
          <mxGeometry x="342.7499999999999" y="124" width="54.5" height="36" as="geometry" />
        </mxCell>
        <mxCell id="8YrjSiBhf-iEGe0bIozn-153" value="[Токен соответствует правилам грамматики]" style="text;html=1;align=center;verticalAlign=middle;resizable=0;points=[];autosize=1;strokeColor=none;fillColor=none;fontFamily=Helvetica;fontSize=10;fontColor=default;labelBackgroundColor=default;" vertex="1" parent="4">
          <mxGeometry x="259.9999999999999" y="82" width="230" height="30" as="geometry" />
        </mxCell>
        <mxCell id="8YrjSiBhf-iEGe0bIozn-155" value="нет" style="edgeStyle=orthogonalEdgeStyle;html=1;align=left;verticalAlign=bottom;endArrow=open;endSize=8;strokeColor=#b85450;rounded=0;fontSize=10;fillColor=#f8cecc;exitX=1;exitY=0.5;exitDx=0;exitDy=0;entryX=0;entryY=0.5;entryDx=0;entryDy=0;" edge="1" parent="4" source="8YrjSiBhf-iEGe0bIozn-152" target="8YrjSiBhf-iEGe0bIozn-162">
          <mxGeometry x="-0.9999" y="-1" relative="1" as="geometry">
            <mxPoint x="440" y="142" as="targetPoint" />
            <mxPoint x="380" y="170" as="sourcePoint" />
            <mxPoint as="offset" />
          </mxGeometry>
        </mxCell>
        <mxCell id="8YrjSiBhf-iEGe0bIozn-158" value="да" style="edgeStyle=orthogonalEdgeStyle;html=1;align=left;verticalAlign=bottom;endArrow=open;endSize=8;strokeColor=#b85450;rounded=0;fontSize=10;fillColor=#f8cecc;exitX=0;exitY=0.5;exitDx=0;exitDy=0;entryX=0.5;entryY=0;entryDx=0;entryDy=0;" edge="1" parent="4" source="8YrjSiBhf-iEGe0bIozn-152" target="8YrjSiBhf-iEGe0bIozn-172">
          <mxGeometry x="-0.0811" relative="1" as="geometry">
            <mxPoint x="280" y="142" as="targetPoint" />
            <mxPoint x="407" y="152" as="sourcePoint" />
            <mxPoint as="offset" />
          </mxGeometry>
        </mxCell>
        <mxCell id="8YrjSiBhf-iEGe0bIozn-169" style="edgeStyle=orthogonalEdgeStyle;shape=connector;rounded=0;orthogonalLoop=1;jettySize=auto;html=1;exitX=1;exitY=0.5;exitDx=0;exitDy=0;entryX=0;entryY=0.5;entryDx=0;entryDy=0;strokeColor=#b85450;align=center;verticalAlign=middle;fontFamily=Helvetica;fontSize=10;fontColor=default;labelBackgroundColor=default;autosize=1;resizable=0;endArrow=open;endFill=0;fillColor=#f8cecc;" edge="1" parent="4" source="8YrjSiBhf-iEGe0bIozn-162" target="8YrjSiBhf-iEGe0bIozn-168">
          <mxGeometry relative="1" as="geometry" />
        </mxCell>
        <mxCell id="8YrjSiBhf-iEGe0bIozn-162" value="Сообщить о синтаксической ошибке" style="rounded=1;whiteSpace=wrap;html=1;arcSize=40;fontColor=#000000;fillColor=#ffffc0;strokeColor=#ff0000;fontSize=10;" vertex="1" parent="4">
          <mxGeometry x="440" y="122" width="110" height="40" as="geometry" />
        </mxCell>
        <mxCell id="8YrjSiBhf-iEGe0bIozn-170" style="edgeStyle=orthogonalEdgeStyle;shape=connector;rounded=0;orthogonalLoop=1;jettySize=auto;html=1;exitX=1;exitY=0.5;exitDx=0;exitDy=0;entryX=0;entryY=0.5;entryDx=0;entryDy=0;strokeColor=#b85450;align=center;verticalAlign=middle;fontFamily=Helvetica;fontSize=10;fontColor=default;labelBackgroundColor=default;autosize=1;resizable=0;endArrow=open;endFill=0;fillColor=#f8cecc;" edge="1" parent="4" source="8YrjSiBhf-iEGe0bIozn-168" target="8YrjSiBhf-iEGe0bIozn-149">
          <mxGeometry relative="1" as="geometry">
            <Array as="points">
              <mxPoint x="710" y="142" />
              <mxPoint x="710" y="632" />
              <mxPoint x="70" y="632" />
              <mxPoint x="70" y="52" />
            </Array>
          </mxGeometry>
        </mxCell>
        <mxCell id="8YrjSiBhf-iEGe0bIozn-168" value="Синхронизироваться со следующим валидным токеном" style="rounded=1;whiteSpace=wrap;html=1;arcSize=40;fontColor=#000000;fillColor=#ffffc0;strokeColor=#ff0000;fontSize=10;" vertex="1" parent="4">
          <mxGeometry x="580" y="122" width="110" height="40" as="geometry" />
        </mxCell>
        <mxCell id="8YrjSiBhf-iEGe0bIozn-172" value="" style="rhombus;whiteSpace=wrap;html=1;fontColor=#000000;fillColor=#ffffc0;strokeColor=#ff0000;fontSize=10;" vertex="1" parent="4">
          <mxGeometry x="192.75" y="192" width="54.5" height="36" as="geometry" />
        </mxCell>
        <mxCell id="8YrjSiBhf-iEGe0bIozn-173" value="нет" style="edgeStyle=orthogonalEdgeStyle;html=1;align=left;verticalAlign=bottom;endArrow=open;endSize=8;strokeColor=#b85450;rounded=0;fontSize=10;fillColor=#f8cecc;exitX=1;exitY=0.5;exitDx=0;exitDy=0;entryX=0;entryY=0.5;entryDx=0;entryDy=0;" edge="1" parent="4" source="8YrjSiBhf-iEGe0bIozn-172">
          <mxGeometry x="-0.9999" y="-1" relative="1" as="geometry">
            <mxPoint x="290" y="210" as="targetPoint" />
            <mxPoint x="230" y="238" as="sourcePoint" />
            <mxPoint as="offset" />
          </mxGeometry>
        </mxCell>
        <mxCell id="8YrjSiBhf-iEGe0bIozn-174" value="да" style="edgeStyle=orthogonalEdgeStyle;html=1;align=left;verticalAlign=bottom;endArrow=open;endSize=8;strokeColor=#b85450;rounded=0;fontSize=10;fillColor=#f8cecc;exitX=0;exitY=0.5;exitDx=0;exitDy=0;" edge="1" parent="4" source="8YrjSiBhf-iEGe0bIozn-172">
          <mxGeometry x="-0.0811" relative="1" as="geometry">
            <mxPoint x="130" y="210" as="targetPoint" />
            <mxPoint x="257" y="220" as="sourcePoint" />
            <mxPoint as="offset" />
          </mxGeometry>
        </mxCell>
        <mxCell id="8YrjSiBhf-iEGe0bIozn-175" value="[Токен является&amp;nbsp;" style="text;html=1;align=center;verticalAlign=middle;resizable=0;points=[];autosize=1;strokeColor=none;fillColor=none;fontFamily=Helvetica;fontSize=10;fontColor=default;labelBackgroundColor=default;" vertex="1" parent="4">
          <mxGeometry x="177.75" y="152" width="100" height="30" as="geometry" />
        </mxCell>
        <mxCell id="8YrjSiBhf-iEGe0bIozn-47" value="Семантический анализ" style="swimlane;whiteSpace=wrap;startSize=23;" vertex="1" parent="1">
          <mxGeometry x="2010" y="128" width="130" height="570" as="geometry" />
        </mxCell>
        <mxCell id="8YrjSiBhf-iEGe0bIozn-62" value="" style="edgeStyle=orthogonalEdgeStyle;html=1;verticalAlign=bottom;endArrow=open;endSize=8;strokeColor=#b85450;rounded=0;entryX=0;entryY=0.5;entryDx=0;entryDy=0;exitX=1;exitY=0.5;exitDx=0;exitDy=0;fillColor=#f8cecc;" edge="1" source="8YrjSiBhf-iEGe0bIozn-65" parent="1" target="8YrjSiBhf-iEGe0bIozn-64">
          <mxGeometry relative="1" as="geometry">
            <mxPoint x="304.5" y="310" as="targetPoint" />
            <Array as="points">
              <mxPoint x="420" y="300" />
              <mxPoint x="420" y="180" />
            </Array>
          </mxGeometry>
        </mxCell>
        <mxCell id="8YrjSiBhf-iEGe0bIozn-148" value="да" style="edgeStyle=orthogonalEdgeStyle;html=1;align=left;verticalAlign=bottom;endArrow=open;endSize=8;strokeColor=#b85450;rounded=0;fontSize=10;fillColor=#f8cecc;exitX=1;exitY=0.5;exitDx=0;exitDy=0;entryX=0;entryY=0.5;entryDx=0;entryDy=0;" edge="1" parent="1" source="8YrjSiBhf-iEGe0bIozn-143" target="8YrjSiBhf-iEGe0bIozn-149">
          <mxGeometry x="-0.9324" y="2" relative="1" as="geometry">
            <mxPoint x="1320" y="180" as="targetPoint" />
            <mxPoint x="1163.5" y="610" as="sourcePoint" />
            <mxPoint as="offset" />
            <Array as="points">
              <mxPoint x="1280" y="422" />
              <mxPoint x="1280" y="180" />
            </Array>
          </mxGeometry>
        </mxCell>
      </root>
    </mxGraphModel>
  </diagram>
</mxfile>
